<?xml version="1.0" encoding="UTF-8"?>
<svg xmlns="http://www.w3.org/2000/svg" viewBox="0 0 480 720" width="100%" height="100%"><rect width="480" height="720" fill="url(#bg)"/><rect x="0" y="0" width="480" height="36" fill="url(#hd)"/><text x="240" y="24" text-anchor="middle" fill="#FFF" font-size="15" font-weight="bold" font-family="Arial">Activity Diagram - Violation Reporting Flow</text><defs>
    <marker id="a" viewBox="0 0 10 10" refX="9" refY="5" markerWidth="7" markerHeight="7" orient="auto"><path d="M0 0L10 5L0 10z" fill="#115E59"/></marker>
    <marker id="a2" viewBox="0 0 10 10" refX="9" refY="5" markerWidth="7" markerHeight="7" orient="auto"><path d="M0 0L10 5L0 10z" fill="#14B8A6"/></marker>
    <marker id="a3" viewBox="0 0 10 10" refX="9" refY="5" markerWidth="7" markerHeight="7" orient="auto"><path d="M0 0L10 5L0 10z" fill="#94A3B8"/></marker>
    <linearGradient id="bg" x1="0%" y1="0%" x2="100%" y2="100%"><stop offset="0%" stop-color="#F8FAFC"/><stop offset="100%" stop-color="#E2E8F0"/></linearGradient>
    <linearGradient id="hd" x1="0%" y1="0%" x2="100%" y2="0%"><stop offset="0%" stop-color="#0F766E"/><stop offset="100%" stop-color="#14B8A6"/></linearGradient>
    <filter id="sh" x="-5%" y="-5%" width="115%" height="120%"><feDropShadow dx="1" dy="2" stdDeviation="3" flood-color="#0F172A" flood-opacity="0.12"/></filter>
  </defs><circle cx="240" cy="65" r="14" fill="#16A34A" stroke="#15803D" stroke-width="2"/><line x1="240" y1="79" x2="240" y2="105" stroke="#115E59" stroke-width="1.5" marker-end="url(#a)"/><rect x="140" y="105" width="200" height="46" rx="8" fill="#FFF" stroke="#0F766E" stroke-width="1.5" filter="url(#sh)"/><text x="240" y="126" text-anchor="middle" fill="#0F766E" font-size="11" font-weight="bold" font-family="Arial">Input Pelanggaran</text><text x="240" y="142" text-anchor="middle" fill="#64748B" font-size="9" font-family="Arial">Guru/Wali/STP2K/BK/Admin</text><line x1="240" y1="151" x2="240" y2="177" stroke="#115E59" stroke-width="1.5" marker-end="url(#a)"/><rect x="140" y="177" width="200" height="40" rx="8" fill="#FFF" stroke="#0F766E" stroke-width="1.5" filter="url(#sh)"/><text x="240" y="195" text-anchor="middle" fill="#0F766E" font-size="11" font-weight="bold" font-family="Arial">Simpan ke Firestore</text><line x1="240" y1="217" x2="240" y2="243" stroke="#115E59" stroke-width="1.5" marker-end="url(#a)"/><rect x="120" y="243" width="240" height="40" rx="8" fill="#F0FDF4" stroke="#16A34A" stroke-width="1.5" filter="url(#sh)"/><text x="240" y="261" text-anchor="middle" fill="#16A34A" font-size="11" font-weight="bold" font-family="Arial">Akumulasi Poin Otomatis</text><line x1="240" y1="283" x2="240" y2="315" stroke="#115E59" stroke-width="1.5" marker-end="url(#a)"/><polygon points="240,315 290,340 240,365 190,340" fill="#FFFBEB" stroke="#F59E0B" stroke-width="2" filter="url(#sh)"/>
    <text x="240" y="344" text-anchor="middle" fill="#D97706" font-size="9" font-weight="bold" font-family="Arial">Kasus Aktif?</text><text x="295" y="345" text-anchor="middle" fill="#D97706" font-size="9" font-weight="normal" font-family="Arial, sans-serif">Ya</text><text x="145" y="345" text-anchor="middle" fill="#D97706" font-size="9" font-weight="normal" font-family="Arial, sans-serif">Tidak</text><line x1="290" y1="340" x2="330" y2="340" stroke="#115E59" stroke-width="1.5"/><line x1="330" y1="340" x2="330" y2="400" stroke="#115E59" stroke-width="1.5" marker-end="url(#a)"/><line x1="190" y1="340" x2="150" y2="340" stroke="#115E59" stroke-width="1.5"/><line x1="150" y1="340" x2="150" y2="400" stroke="#115E59" stroke-width="1.5" marker-end="url(#a)"/><rect x="275" y="400" width="170" height="40" rx="8" fill="#FFF" stroke="#0F766E" stroke-width="1.5" filter="url(#sh)"/><text x="360" y="418" text-anchor="middle" fill="#0F766E" font-size="11" font-weight="bold" font-family="Arial">Hubungkan ke Kasus Aktif</text><line x1="360" y1="440" x2="240" y2="470" stroke="#115E59" stroke-width="1.5" marker-end="url(#a)"/><rect x="40" y="400" width="170" height="40" rx="8" fill="#FFF" stroke="#0F766E" stroke-width="1.5" filter="url(#sh)"/><text x="125" y="418" text-anchor="middle" fill="#0F766E" font-size="11" font-weight="bold" font-family="Arial">Buka Kasus Baru (DRAFT)</text><line x1="125" y1="440" x2="125" y2="470" stroke="#115E59" stroke-width="1.5"/><line x1="125" y1="470" x2="240" y2="470" stroke="#115E59" stroke-width="1.5" marker-end="url(#a)"/><rect x="120" y="470" width="240" height="40" rx="8" fill="#FFF7ED" stroke="#EA580C" stroke-width="1.5" filter="url(#sh)"/><text x="240" y="488" text-anchor="middle" fill="#C2410C" font-size="11" font-weight="bold" font-family="Arial">Status: PELANGGARAN_DICATAT</text><line x1="240" y1="510" x2="240" y2="540" stroke="#115E59" stroke-width="1.5" marker-end="url(#a)"/><rect x="120" y="540" width="240" height="40" rx="8" fill="#EFF6FF" stroke="#2563EB" stroke-width="1.5" filter="url(#sh)"/><text x="240" y="558" text-anchor="middle" fill="#2563EB" font-size="11" font-weight="bold" font-family="Arial">Kirim Notifikasi</text><text x="240" y="574" text-anchor="middle" fill="#64748B" font-size="9" font-family="Arial">In-App + Email</text><line x1="240" y1="580" x2="240" y2="620" stroke="#115E59" stroke-width="1.5" marker-end="url(#a)"/><circle cx="240" cy="636" r="14" fill="#DC2626" stroke="#991B1B" stroke-width="2"/>
<text x="240" y="695" text-anchor="middle" fill="#94A3B8" font-size="9" font-weight="normal" font-family="Arial, sans-serif">Activity Diagram: Alur Pencatatan Pelanggaran hingga Notifikasi</text></svg>